<?xml version="1.0" encoding="UTF-8"?>
<svg width="640" height="480" xmlns="http://www.w3.org/2000/svg" xmlns:svg="http://www.w3.org/2000/svg">
 <title>heart outline</title>
 <g>
  <title>Layer 1</title>
  <g id="layer1">
   <path stroke-linejoin="round" fill="#ffffff" stroke="#4c4c4c" stroke-width="18.700001" stroke-miterlimit="4" id="path9" d="m234.41571,31.14587c-66.24001,0 -119.99995,53.76001 -119.99995,120c0,134.75553 135.93315,170.08728 228.56245,303.30805c87.57422,-132.40338 228.5625,-172.85459 228.5625,-303.30805c0,-66.23999 -53.75989,-120 -120,-120c-48.04791,0 -89.40161,28.37043 -108.5625,69.1875c-19.1608,-40.81707 -60.5145,-69.1875 -108.5625,-69.1875z"/>
   <path fill="#ffffff" fill-opacity="0.64557" stroke-width="18.700001" stroke-miterlimit="4" id="path220" d="m236,49.59375c-57.95967,0 -105,47.04031 -105,105c0,117.9104 118.91858,148.83875 199.96875,265.40625c6.55994,-9.91797 -139.96875,-145.52692 -139.96875,-245.40625c0,-57.95969 47.04034,-105 105,-105c0.50452,0 0.99719,0.05536 1.5,0.0625c-17.27564,-12.5834 -38.49442,-20.06252 -61.5,-20.0625z"/>
  </g>
 </g>
</svg>